<svg width="25" height="25" viewBox="0 0 25 25" fill="none" xmlns="http://www.w3.org/2000/svg">
<path d="M0.5 22.6538V2.34615C0.5 1.85652 0.694505 1.38695 1.04073 1.04073C1.38695 0.694505 1.85652 0.5 2.34615 0.5H22.6538C23.1435 0.5 23.6131 0.694505 23.9593 1.04073C24.3055 1.38695 24.5 1.85652 24.5 2.34615V22.6538C24.5 23.1435 24.3055 23.6131 23.9593 23.9593C23.6131 24.3055 23.1435 24.5 22.6538 24.5H17.1154V15.7492H18.4262C18.7248 15.7492 19.0113 15.6306 19.2225 15.4194C19.4337 15.2082 19.5523 14.9218 19.5523 14.6231V13.2015C19.5523 12.9029 19.4337 12.6164 19.2225 12.4052C19.0113 12.194 18.7248 12.0754 18.4262 12.0754H17.1892V10.34C17.1892 8.78923 17.8908 8.78923 18.5923 8.78923H19.4969C19.6455 8.79535 19.7936 8.76876 19.9308 8.71134C20.068 8.65392 20.1909 8.56707 20.2908 8.45692C20.3981 8.35478 20.483 8.2315 20.5402 8.09485C20.5974 7.95821 20.6256 7.81119 20.6231 7.66308V6.29692C20.628 6.14659 20.6033 5.99676 20.5502 5.856C20.4972 5.71524 20.417 5.58631 20.3141 5.47657C20.2112 5.36684 20.0877 5.27846 19.9507 5.21649C19.8136 5.15451 19.6657 5.12016 19.5154 5.11538H17.3923C16.7728 5.0921 16.1557 5.20356 15.5835 5.44207C15.0113 5.68059 14.4977 6.04047 14.0781 6.49687C13.6586 6.95326 13.3432 7.49528 13.1536 8.0855C12.964 8.67571 12.9047 9.30005 12.98 9.91538V12.0754H11.7985C11.649 12.0729 11.5006 12.1003 11.3618 12.1558C11.2231 12.2112 11.0967 12.2938 10.9902 12.3986C10.8837 12.5034 10.799 12.6284 10.7413 12.7663C10.6836 12.9041 10.6538 13.0521 10.6538 13.2015V14.6231C10.6538 14.7725 10.6836 14.9205 10.7413 15.0583C10.799 15.1962 10.8837 15.3212 10.9902 15.426C11.0967 15.5308 11.2231 15.6134 11.3618 15.6689C11.5006 15.7244 11.649 15.7517 11.7985 15.7492H12.98V24.5H2.34615C1.85652 24.5 1.38695 24.3055 1.04073 23.9593C0.694505 23.6131 0.5 23.1435 0.5 22.6538Z" stroke="white" stroke-linecap="round" stroke-linejoin="round"/>
</svg>
