<svg width="26" height="26" viewBox="0 0 26 26" fill="none" xmlns="http://www.w3.org/2000/svg">
<path d="M0.75 12.9948C0.75 10.248 0.75 8.8752 1.374 7.7376C1.9956 6.5988 3.1344 5.8932 5.4108 4.4796L7.8108 2.9904C10.2168 1.4964 11.4204 0.75 12.75 0.75C14.0796 0.75 15.282 1.4964 17.6892 2.9904L20.0892 4.4796C22.3656 5.8932 23.5044 6.5988 24.1272 7.7376C24.75 8.8752 24.75 10.248 24.75 12.9936V14.82C24.75 19.5 24.75 21.8412 23.3436 23.2956C21.9384 24.75 19.6752 24.75 15.15 24.75H10.35C5.8248 24.75 3.5616 24.75 2.1564 23.2956C0.75 21.8412 0.75 19.5012 0.75 14.82V12.9948Z" stroke="white" stroke-width="1.5"/>
<path d="M12.75 16.35V19.95" stroke="white" stroke-width="1.5" stroke-linecap="round"/>
</svg>
