<svg width="24" height="32" viewBox="0 0 24 32" fill="none" xmlns="http://www.w3.org/2000/svg">
<path d="M3.91086 0.844846L6.10726 0.183281C7.10709 -0.118361 8.18252 -0.045843 9.1328 0.387298C10.0831 0.82044 10.8433 1.5846 11.2714 2.53713L12.6382 5.57769C13.0065 6.39679 13.1091 7.31064 12.9316 8.19102C12.7541 9.07139 12.3054 9.8741 11.6485 10.4865L9.26028 12.7133C9.23077 12.7409 9.20655 12.7736 9.18883 12.8099C8.93876 13.3206 9.3185 14.6848 10.508 16.7462C11.8496 19.0697 12.8857 19.9879 13.366 19.8463L16.5005 18.8871C17.3589 18.6249 18.2778 18.638 19.1285 18.9244C19.9791 19.2108 20.7188 19.7561 21.2439 20.4841L23.1862 23.174C23.796 24.0186 24.0785 25.0559 23.9812 26.093C23.8838 27.1302 23.4133 28.0968 22.657 28.8132L20.9859 30.3943C20.4048 30.9448 19.6991 31.3465 18.9291 31.5651C18.1591 31.7838 17.3476 31.8129 16.564 31.65C11.9105 30.6815 7.74133 26.9343 4.02068 20.4907C0.298715 14.0431 -0.861672 8.55208 0.633467 4.03624C0.883745 3.28021 1.31233 2.59553 1.883 2.04005C2.45368 1.48458 3.14835 1.07463 3.91086 0.844846ZM4.4851 2.74486C4.02758 2.88267 3.60994 3.12858 3.26749 3.46182C2.92504 3.79506 2.66783 4.20583 2.51761 4.65943C1.22888 8.55076 2.27283 13.494 5.73943 19.4983C9.20339 25.4987 12.9584 28.8727 16.9675 29.7063C17.438 29.8041 17.9251 29.7866 18.3873 29.6553C18.8495 29.5239 19.273 29.2827 19.6217 28.9521L21.2915 27.3723C21.6989 26.9867 21.9524 26.4662 22.005 25.9077C22.0576 25.3492 21.9056 24.7906 21.5773 24.3357L19.635 21.6445C19.3523 21.2526 18.9541 20.959 18.4961 20.8047C18.0382 20.6505 17.5435 20.6434 17.0813 20.7844L13.9389 21.7463C12.2003 22.2637 10.5649 20.8149 8.78925 17.7373C7.28485 15.1333 6.76353 13.2518 7.40657 11.938C7.53095 11.6839 7.70031 11.455 7.90672 11.2619L10.295 9.03503C10.6488 8.70528 10.8905 8.273 10.9862 7.79886C11.0818 7.32473 11.0266 6.83255 10.8282 6.39141L9.4614 3.35218C9.23085 2.83915 8.82145 2.42757 8.30964 2.19432C7.79784 1.96106 7.21863 1.92206 6.68017 2.08462L4.48378 2.74619L4.4851 2.74486Z" fill="white"/>
</svg>
