<svg width="30" height="29" viewBox="0 0 30 29" fill="none" xmlns="http://www.w3.org/2000/svg">
<path d="M9.39007 19.0126C8.04663 20.0678 6.50466 20.842 4.85589 21.2891C4.67429 21.355 4.51738 21.4753 4.4065 21.6335C4.29562 21.7917 4.23613 21.9802 4.23613 22.1734C4.23613 22.3666 4.29562 22.5551 4.4065 22.7133C4.51738 22.8715 4.67429 22.9917 4.85589 23.0576C17.8752 28.4008 26.1534 20.1415 24.8928 10.979L27 6.61419H24.5542C21.5063 2.8702 13.4163 3.05834 14.7521 11.0355C14.7521 11.0355 10.4248 11.8069 4.89352 6.36961C4.76557 6.24328 4.6041 6.15628 4.42822 6.11889C4.25235 6.0815 4.06945 6.0953 3.90118 6.15865C3.7329 6.222 3.58631 6.33224 3.47876 6.47633C3.37121 6.62042 3.3072 6.79232 3.29433 6.97166C2.70946 9.3758 3.00215 11.9098 4.1197 14.1173C5.23725 16.3248 7.10622 18.0608 9.39007 19.0126Z" stroke="white" stroke-linecap="round" stroke-linejoin="round"/>
</svg>
