<svg width="158" height="24" viewBox="0 0 158 24" fill="none" xmlns="http://www.w3.org/2000/svg">
<path d="M8.90625 13.5938H3.0625L3.03125 10.375H7.9375C9.21875 10.375 10.1667 10.1302 10.7812 9.64062C11.4062 9.14062 11.7188 8.41667 11.7188 7.46875C11.7188 6.41667 11.4115 5.66146 10.7969 5.20312C10.1927 4.73438 9.23958 4.5 7.9375 4.5H4.6875V23.5781H0V0.828125H7.9375C10.5833 0.828125 12.6562 1.33333 14.1562 2.34375C15.6562 3.35417 16.4062 4.91667 16.4062 7.03125C16.4062 7.96875 16.1927 8.83333 15.7656 9.625C15.349 10.4167 14.6875 11.0625 13.7812 11.5625C12.8854 12.0625 11.7135 12.3385 10.2656 12.3906L8.90625 13.5938ZM8.70312 23.5781H1.78125L3.60938 19.9219H8.70312C9.92188 19.9219 10.8177 19.6354 11.3906 19.0625C11.9635 18.4792 12.25 17.7448 12.25 16.8594C12.25 16.1927 12.1354 15.6146 11.9062 15.125C11.6875 14.6354 11.3333 14.2604 10.8438 14C10.3542 13.7292 9.70833 13.5938 8.90625 13.5938H4.39062L4.42188 10.375H10.0469L11.125 11.6406C12.5104 11.6198 13.625 11.8646 14.4688 12.375C15.3229 12.875 15.9427 13.526 16.3281 14.3281C16.724 15.1302 16.9219 15.9896 16.9219 16.9062C16.9219 19.0938 16.2083 20.7552 14.7812 21.8906C13.3646 23.0156 11.3385 23.5781 8.70312 23.5781ZM27.9375 23.8906C26.1875 23.8906 24.6823 23.526 23.4219 22.7969C22.1615 22.0573 21.1927 21.0677 20.5156 19.8281C19.849 18.5885 19.5156 17.2135 19.5156 15.7031V15.0781C19.5156 13.3698 19.8333 11.8646 20.4688 10.5625C21.1042 9.25 22.0156 8.22396 23.2031 7.48438C24.3906 6.73438 25.8021 6.35938 27.4375 6.35938C29.0417 6.35938 30.3958 6.70833 31.5 7.40625C32.6042 8.09375 33.4427 9.05729 34.0156 10.2969C34.5885 11.5365 34.875 12.9844 34.875 14.6406V16.5156H21.4375V13.5156H30.4531V13.1719C30.4531 12.5469 30.3385 11.9896 30.1094 11.5C29.8906 11 29.5573 10.6042 29.1094 10.3125C28.6615 10.0208 28.0885 9.875 27.3906 9.875C26.599 9.875 25.9531 10.099 25.4531 10.5469C24.9531 10.9948 24.5885 11.6146 24.3594 12.4062C24.1406 13.1875 24.0312 14.0781 24.0312 15.0781V15.7031C24.0312 16.6094 24.1979 17.4167 24.5312 18.125C24.8646 18.8229 25.3438 19.375 25.9688 19.7812C26.5938 20.1771 27.3438 20.375 28.2188 20.375C29.0312 20.375 29.7865 20.2188 30.4844 19.9062C31.1927 19.5833 31.8021 19.099 32.3125 18.4531L34.5 20.8281C33.9688 21.599 33.151 22.3021 32.0469 22.9375C30.9427 23.5729 29.5729 23.8906 27.9375 23.8906ZM46.5781 18.9062C46.5781 18.5833 46.4844 18.2917 46.2969 18.0312C46.1094 17.7708 45.7604 17.5312 45.25 17.3125C44.75 17.0833 44.026 16.875 43.0781 16.6875C41.9323 16.4375 40.9062 16.099 40 15.6719C39.0938 15.2448 38.3802 14.6979 37.8594 14.0312C37.3385 13.3646 37.0781 12.5469 37.0781 11.5781C37.0781 10.6406 37.3438 9.77604 37.875 8.98438C38.4167 8.19271 39.1927 7.55729 40.2031 7.07812C41.2135 6.59896 42.4219 6.35938 43.8281 6.35938C45.2969 6.35938 46.5573 6.59375 47.6094 7.0625C48.6719 7.53125 49.4844 8.17708 50.0469 9C50.6198 9.8125 50.9062 10.7396 50.9062 11.7812H46.4062C46.4062 11.125 46.1979 10.5781 45.7812 10.1406C45.3646 9.69271 44.7083 9.46875 43.8125 9.46875C43.3125 9.46875 42.8802 9.55729 42.5156 9.73438C42.151 9.90104 41.8698 10.1302 41.6719 10.4219C41.4844 10.7031 41.3906 11.0156 41.3906 11.3594C41.3906 11.7031 41.4896 12.0052 41.6875 12.2656C41.8958 12.5156 42.2292 12.7396 42.6875 12.9375C43.1458 13.125 43.7708 13.2969 44.5625 13.4531C45.7812 13.7031 46.8698 14.0312 47.8281 14.4375C48.7865 14.8333 49.5469 15.375 50.1094 16.0625C50.6719 16.7396 50.9531 17.6302 50.9531 18.7344C50.9531 19.724 50.6615 20.6094 50.0781 21.3906C49.4948 22.1719 48.6719 22.7865 47.6094 23.2344C46.5469 23.6719 45.2917 23.8906 43.8438 23.8906C42.2708 23.8906 40.9375 23.6094 39.8438 23.0469C38.7604 22.4844 37.9375 21.7708 37.375 20.9062C36.8229 20.0312 36.5469 19.1354 36.5469 18.2188H40.8125C40.8333 18.8333 40.9896 19.3281 41.2812 19.7031C41.5833 20.0781 41.9635 20.349 42.4219 20.5156C42.8906 20.6823 43.3958 20.7656 43.9375 20.7656C44.5208 20.7656 45.0052 20.6875 45.3906 20.5312C45.776 20.3646 46.0677 20.1458 46.2656 19.875C46.474 19.5938 46.5781 19.2708 46.5781 18.9062ZM62.1562 6.67188V9.85938H52.3125V6.67188H62.1562ZM54.75 2.5H59.25V18.4844C59.25 18.974 59.3125 19.349 59.4375 19.6094C59.5729 19.8698 59.7708 20.0521 60.0312 20.1562C60.2917 20.25 60.6198 20.2969 61.0156 20.2969C61.2969 20.2969 61.5469 20.2865 61.7656 20.2656C61.9948 20.2344 62.1875 20.2031 62.3438 20.1719L62.3594 23.4844C61.974 23.6094 61.5573 23.7083 61.1094 23.7812C60.6615 23.8542 60.1667 23.8906 59.625 23.8906C58.6354 23.8906 57.7708 23.7292 57.0312 23.4062C56.3021 23.0729 55.7396 22.5417 55.3438 21.8125C54.9479 21.0833 54.75 20.125 54.75 18.9375V2.5ZM75.2031 0.828125H79.1719L85.0156 17.5312L90.8594 0.828125H94.8281L86.6094 23.5781H83.4219L75.2031 0.828125ZM73.0625 0.828125H77.0156L77.7344 17.1094V23.5781H73.0625V0.828125ZM93.0156 0.828125H96.9844V23.5781H92.2969V17.1094L93.0156 0.828125ZM110.812 19.5312V6.67188H115.312V23.5781H111.078L110.812 19.5312ZM111.312 16.0625L112.641 16.0312C112.641 17.5312 112.406 18.875 111.938 20.0625C111.479 21.25 110.781 22.1875 109.844 22.875C108.917 23.5521 107.74 23.8906 106.312 23.8906C104.656 23.8906 103.302 23.401 102.25 22.4219C101.208 21.4427 100.688 19.8333 100.688 17.5938V6.67188H105.188V17.625C105.188 18.2812 105.292 18.8125 105.5 19.2188C105.708 19.625 105.995 19.9167 106.359 20.0938C106.734 20.2604 107.161 20.3438 107.641 20.3438C108.568 20.3438 109.297 20.1562 109.828 19.7812C110.37 19.4062 110.75 18.8958 110.969 18.25C111.198 17.5938 111.312 16.8646 111.312 16.0625ZM127.891 18.9062C127.891 18.5833 127.797 18.2917 127.609 18.0312C127.422 17.7708 127.073 17.5312 126.562 17.3125C126.062 17.0833 125.339 16.875 124.391 16.6875C123.245 16.4375 122.219 16.099 121.312 15.6719C120.406 15.2448 119.693 14.6979 119.172 14.0312C118.651 13.3646 118.391 12.5469 118.391 11.5781C118.391 10.6406 118.656 9.77604 119.188 8.98438C119.729 8.19271 120.505 7.55729 121.516 7.07812C122.526 6.59896 123.734 6.35938 125.141 6.35938C126.609 6.35938 127.87 6.59375 128.922 7.0625C129.984 7.53125 130.797 8.17708 131.359 9C131.932 9.8125 132.219 10.7396 132.219 11.7812H127.719C127.719 11.125 127.51 10.5781 127.094 10.1406C126.677 9.69271 126.021 9.46875 125.125 9.46875C124.625 9.46875 124.193 9.55729 123.828 9.73438C123.464 9.90104 123.182 10.1302 122.984 10.4219C122.797 10.7031 122.703 11.0156 122.703 11.3594C122.703 11.7031 122.802 12.0052 123 12.2656C123.208 12.5156 123.542 12.7396 124 12.9375C124.458 13.125 125.083 13.2969 125.875 13.4531C127.094 13.7031 128.182 14.0312 129.141 14.4375C130.099 14.8333 130.859 15.375 131.422 16.0625C131.984 16.7396 132.266 17.6302 132.266 18.7344C132.266 19.724 131.974 20.6094 131.391 21.3906C130.807 22.1719 129.984 22.7865 128.922 23.2344C127.859 23.6719 126.604 23.8906 125.156 23.8906C123.583 23.8906 122.25 23.6094 121.156 23.0469C120.073 22.4844 119.25 21.7708 118.688 20.9062C118.135 20.0312 117.859 19.1354 117.859 18.2188H122.125C122.146 18.8333 122.302 19.3281 122.594 19.7031C122.896 20.0781 123.276 20.349 123.734 20.5156C124.203 20.6823 124.708 20.7656 125.25 20.7656C125.833 20.7656 126.318 20.6875 126.703 20.5312C127.089 20.3646 127.38 20.1458 127.578 19.875C127.786 19.5938 127.891 19.2708 127.891 18.9062ZM139.938 6.67188V23.5781H135.422V6.67188H139.938ZM135.141 2.26562C135.141 1.60938 135.37 1.06771 135.828 0.640625C136.286 0.213542 136.901 0 137.672 0C138.432 0 139.042 0.213542 139.5 0.640625C139.969 1.06771 140.203 1.60938 140.203 2.26562C140.203 2.92188 139.969 3.46354 139.5 3.89062C139.042 4.31771 138.432 4.53125 137.672 4.53125C136.901 4.53125 136.286 4.31771 135.828 3.89062C135.37 3.46354 135.141 2.92188 135.141 2.26562ZM150.641 20.375C151.193 20.375 151.682 20.2708 152.109 20.0625C152.536 19.8438 152.87 19.5417 153.109 19.1562C153.359 18.7604 153.49 18.2969 153.5 17.7656H157.734C157.724 18.9531 157.406 20.0104 156.781 20.9375C156.156 21.8542 155.318 22.5781 154.266 23.1094C153.214 23.6302 152.036 23.8906 150.734 23.8906C148.984 23.8906 147.531 23.5104 146.375 22.75C145.229 21.9896 144.37 20.9635 143.797 19.6719C143.224 18.3802 142.938 16.9427 142.938 15.3594V14.9062C142.938 13.3125 143.224 11.8698 143.797 10.5781C144.37 9.28646 145.229 8.26042 146.375 7.5C147.531 6.73958 148.974 6.35938 150.703 6.35938C152.089 6.35938 153.302 6.625 154.344 7.15625C155.396 7.6875 156.219 8.44792 156.812 9.4375C157.417 10.4167 157.724 11.5781 157.734 12.9219H153.5C153.49 12.3594 153.37 11.849 153.141 11.3906C152.922 10.9323 152.599 10.5677 152.172 10.2969C151.755 10.0156 151.24 9.875 150.625 9.875C149.75 9.875 149.083 10.1146 148.625 10.5938C148.167 11.0729 147.854 11.6979 147.688 12.4688C147.521 13.2292 147.438 14.0417 147.438 14.9062V15.3594C147.438 16.2448 147.521 17.0677 147.688 17.8281C147.854 18.5885 148.167 19.2031 148.625 19.6719C149.094 20.1406 149.766 20.375 150.641 20.375Z" fill="url(#paint0_linear_418_76)"/>
<defs>
<linearGradient id="paint0_linear_418_76" x1="-10.535" y1="14.5781" x2="219.136" y2="15.589" gradientUnits="userSpaceOnUse">
<stop stop-color="#EE10B0"/>
<stop offset="1" stop-color="#0E9EEF" stop-opacity="0.92"/>
</linearGradient>
</defs>
</svg>
